<svg id="Layer_2" data-name="Layer 2" xmlns="http://www.w3.org/2000/svg" viewBox="0 0 1016.23 268.78"><defs><style>.cls-1{fill:#c9bf02;}</style></defs><title>artr</title><path class="cls-1" d="M958.91,244.43S944.1,226,940.36,235.57s9.27,23.15,9.27,23.15,20.17,18.9,26.81,21.62,31.15,4.94,36.77,4.43,31-6.13,41-12.6,39.83-27.4,42.89-57,5.79-70.81-22.47-89.19-73.19-53.45-160.34-17c0,0-33,19.74-44.93,29.95s-89.19,63.66-89.19,63.66-49,35.07-83.75,31.32c0,0-51.06,18-83.74-20.08s12.93-63,12.93-63,31.66-15.32,43.24,8.17-1.37,33.7-11.24,34.72-23.49-3.74-18-19.4,14.64-3.07,14,.68-2,15.32-5.79,10.55,4.43,12.6,12.25,3.41,9.54-33-18-34.05-22.81,33-20.08,36.77,7.15,17,23.83,17,29.95.69,40.17-19.74S695.76,145,676,135.83,626,115.06,597.38,146s-16.68,71.83,0,84.09,29.27,23.15,50.38,25.87,34.72-2.72,34.72-2.72S630.06,274,594.65,273.7,500,282.21,465,247.49s-36.08-57.19-33.36-79,10.89-37.11,10.89-42.21-.34-27.24-33-17-14.64,98-14.64,98,28.6,54.47,75.58,70.81,100.42,15,113,14.64,66.38-9.54,95-20.43a338.33,338.33,0,0,0,52.08-25.53l69.11-37.45s-102.47,71.49-107.92,74.21-101.44,53.79-203.23,49-143.32-78-143.32-78-15.32-69.79,2.38-104.51,20.43-47,5.45-52.77-39.49,21.79-42.55,30-13.28,54.81-6.81,82,11.91,37.11,11.91,37.11-45.27-80.34-105.87-113.36S100.36,147.74,90.14,169.87s-15.32,71.49,22.13,87.49,67.74,9.19,79-4.42,28.94-32.34,26.89-48.68-26.89-36.77-43.23-31-21.45,8.51-32.68,32.34c0,0,1.36,8,11.57,16.42s12.94,6.05,9.53-2.47-7.83-20.76,2-25.87,16.68-3.74,21.44,5.45,8.17,27.23-.34,34.72-26.89,15-36.76,14.3-20.09-.68-26.9-15.66c0,0-14.29-8.51-13.61-34.38s8.85-37.79,20.08-41.19,16.34-11.92,52.77-10.56,64.34,53.45,64.34,53.45,61.36,70.3,65.19,72.6,70.47,58.15,79.66,60.48,83.49,40.62,146.3,25.3,184.59-62,226-101.87,101.11-81.19,111.07-94.21S917.46,117.7,964.19,110s70.46,27.58,71.23,32.94-1.53,42.13-19.92,46.72-51.31.77-53.61-13,8.42-24.51,8.42-24.51-16.08-2.3-21.44,10-6.13,34.47,7.66,41.36,38.29,16.85,48.25,13,23.75-12.25,36-26.81,19.15-21.44,19.15-33.7-6.89-26-6.89-26,28.34,21.44,26,47.49c-2.08,23.57-1.6,35-14.18,55.66-2.33,3.83-5.57,8.76-9.31,11.66-5.16,4-13.85,11.38-41.62,16.17C969.55,268.6,958.91,244.43,958.91,244.43Z" transform="translate(-82.73 -93.04)"/></svg>